# xmcd CD database file
#
# Track frame offsets:
#	150
#	18577
#	35377
#	54187
#	73492
#	94102
#	113525
#	136342
#	153690
#	175572
#	196115
#	212957
#
# Disc length: 3124 seconds
#
# Revision: 9
# Processed by: cddbd v1.5.2PL0 Copyright (c) Steve Scherf et al.
# Submitted via: CDex 1.70beta3
#
DISCID=a10c320c
DTITLE=水樹奈々 - supersonic girl
DYEAR=2001
DGENRE=JPop
TTITLE0=Love'sWonderland
TTITLE1=The place of happiness
TTITLE2=supersonic girl
TTITLE3=HeavenKnows～Brave edit～
TTITLE4=想い～Pedigreed mix～
TTITLE5=LookAway～All together version～
TTITLE6=TRANSMIGRATION
TTITLE7=LOOKING ON THE MOON
TTITLE8=真冬の観覧車
TTITLE9=NANA色のように～Special album version～
TTITLE10=水中の青空
TTITLE11=WINDOW OF HEART
EXTD=YEAR: 2001
EXTT0=
EXTT1=GENERATION OF CHAOS (OP)
EXTT2=
EXTT3=RUN=DIM (ED)
EXTT4=
EXTT5=
EXTT6=
EXTT7=
EXTT8=
EXTT9=WAGAMANMA KITCHEN (ED)
EXTT10=
EXTT11=
PLAYORDER=
